<svg width="104" height="27" viewBox="0 0 104 27" fill="none" xmlns="http://www.w3.org/2000/svg">
<path d="M78.1956 6.03581H81.2306L80.6507 7.83628H78.1956V17.9111H75.9521V7.83628H74.3647V6.03581H75.9521C75.9521 5.31338 75.9521 4.60564 75.9521 3.88252C75.9521 2.44606 76.5292 1.41552 77.3977 0.796503C78.5665 -0.0474894 80.4669 0.00140387 81.6707 0.591781L81.2047 2.38318C79.864 1.87036 78.1956 1.86266 78.1956 4.05579C78.1956 4.71533 78.1956 5.37626 78.1956 6.03581ZM98.6261 5.7836C101.878 5.7836 103.541 8.27016 103.555 11.644C103.557 12.0674 103.552 12.0129 103.552 12.4342C101.027 12.4342 98.4619 12.4342 95.9376 12.4342C96.0619 13.5821 96.303 14.5191 97.031 15.2226C98.2634 16.4166 100.144 16.6821 102.627 15.4511L103.293 16.9965C101.442 18.2304 97.956 18.6126 95.9152 17.0343C94.5668 16.0687 93.699 14.1872 93.699 11.9179C93.699 8.09131 95.8293 5.7836 98.6261 5.7836ZM98.6498 7.53655C100.357 7.53655 101.273 9.18681 101.273 10.7693L95.9536 10.7826C95.9536 8.95067 97.1435 7.53655 98.6498 7.53655ZM87.3656 6.06377H89.2506L89.4798 7.52887C91.0057 5.77102 92.832 5.38674 94.2168 6.12174L93.4566 8.09479C92.0711 7.33463 90.8541 8.03121 89.5832 9.32235V17.9111H87.3656V6.06377ZM83.1533 6.06377H85.3765V17.9111H83.1533V6.06377ZM84.2656 0.786713C85.0663 0.786713 85.7153 1.43439 85.7153 2.23297C85.7153 3.03085 85.0663 3.67852 84.2656 3.67852C83.4649 3.67852 82.8159 3.03085 82.8159 2.23297C82.8159 1.43439 83.4649 0.786713 84.2656 0.786713Z" fill="white"/>
<path d="M101.182 10.8709H96.0913C96.0913 10.6029 96.3593 7.92345 98.7708 7.92345C100.7 7.92345 101.182 9.88838 101.182 10.8709Z" fill="#24272C"/>
<path fill-rule="evenodd" clip-rule="evenodd" d="M43.5695 22.2509C39.5054 25.2503 33.6128 26.8453 28.5384 26.8453C21.4273 26.8453 15.0233 24.2169 10.1773 19.8405C9.79725 19.4974 10.1361 19.0279 10.5937 19.2941C15.8219 22.3361 22.2881 24.1687 28.9659 24.1687C33.4703 24.1687 38.4217 23.2339 42.9785 21.3007C43.6653 21.0093 44.2417 21.7541 43.5695 22.2509Z" fill="white"/>
<path fill-rule="evenodd" clip-rule="evenodd" d="M45.2605 20.3183C44.74 19.6525 41.8245 20.0025 40.5138 20.1597C40.1169 20.2072 40.0554 19.8607 40.4132 19.6092C42.7397 17.9757 46.5517 18.4473 46.9946 18.9943C47.4411 19.5456 46.8773 23.3687 44.6974 25.1922C44.362 25.4724 44.0428 25.3229 44.1916 24.9526C44.682 23.7271 45.781 20.9841 45.2605 20.3183Z" fill="white"/>
<path fill-rule="evenodd" clip-rule="evenodd" d="M40.6066 8.06444V6.47637C40.608 6.23463 40.7897 6.07393 41.009 6.07463L48.1257 6.07393C48.3535 6.07393 48.5365 6.23952 48.5365 6.47427V7.83597C48.5337 8.06444 48.3416 8.36278 48.0006 8.83578L44.3138 14.0989C45.6818 14.0667 47.1301 14.2721 48.373 14.9708C48.6532 15.1287 48.7287 15.3613 48.751 15.5905V17.2848C48.751 17.5181 48.4953 17.7885 48.2263 17.6474C46.036 16.5002 43.1295 16.3751 40.7072 17.6621C40.4599 17.7934 40.2007 17.5272 40.2007 17.2939V15.6834C40.2007 15.4249 40.2056 14.9848 40.4655 14.5921L44.7365 8.46408H41.0181C40.7911 8.46408 40.608 8.30199 40.6066 8.06444Z" fill="white"/>
<path fill-rule="evenodd" clip-rule="evenodd" d="M14.6442 17.982H12.479C12.2729 17.9688 12.108 17.8144 12.0913 17.6159L12.0934 6.50429C12.0934 6.28142 12.2799 6.10466 12.5112 6.10466L14.5275 6.10326C14.7385 6.11444 14.9076 6.27374 14.9209 6.47705V7.92749H14.9614C15.4868 6.52456 16.4775 5.86991 17.8106 5.86991C19.1646 5.86991 20.0135 6.52456 20.6199 7.92749C21.146 6.52456 22.338 5.86991 23.6117 5.86991C24.5206 5.86991 25.5113 6.24369 26.1171 7.08559C26.8046 8.02111 26.6634 9.37724 26.6634 10.5699L26.6613 17.5824C26.6613 17.8039 26.4748 17.982 26.2435 17.982H24.0812C23.8639 17.9681 23.6927 17.7962 23.6927 17.5831V11.6919C23.6927 11.2252 23.7325 10.0556 23.6312 9.61129C23.4698 8.86302 22.985 8.652 22.3589 8.652C21.8328 8.652 21.2872 9.00274 21.0643 9.56447C20.8428 10.1255 20.8624 11.0603 20.8624 11.6919V17.5824C20.8624 17.8039 20.6758 17.982 20.4453 17.982H18.2829C18.0649 17.9681 17.8937 17.7962 17.8937 17.5831L17.8916 11.6919C17.8916 10.4532 18.0936 8.62966 16.5586 8.62966C15.0013 8.62966 15.0627 10.4064 15.0627 11.6919L15.0613 17.5824C15.0613 17.8039 14.8748 17.982 14.6442 17.982Z" fill="white"/>
<path fill-rule="evenodd" clip-rule="evenodd" d="M54.6851 8.1381C53.0887 8.1381 52.9874 10.3124 52.9874 11.6685C52.9874 13.0246 52.9678 15.9241 54.6656 15.9241C56.3431 15.9241 56.4234 13.5856 56.4234 12.1604C56.4234 11.2248 56.3829 10.1021 56.0999 9.21335C55.8568 8.44132 55.3719 8.1381 54.6851 8.1381ZM54.6656 5.86952C57.8787 5.86952 59.6163 8.62927 59.6163 12.1366C59.6163 15.5265 57.6971 18.2164 54.6656 18.2164C51.5125 18.2164 49.7944 15.4567 49.7944 12.0192C49.7944 8.55871 51.532 5.86952 54.6656 5.86952Z" fill="white"/>
<path fill-rule="evenodd" clip-rule="evenodd" d="M63.7814 17.982H61.6239C61.4073 17.9681 61.2361 17.7962 61.2361 17.5831L61.2319 6.46728C61.2501 6.26327 61.4304 6.10466 61.6483 6.10466L63.6563 6.10326C63.8457 6.11374 64.0015 6.24231 64.0413 6.41488V8.11473H64.0818C64.6883 6.59442 65.5371 5.86991 67.0323 5.86991C68.0027 5.86991 68.9529 6.22064 69.5587 7.17922C70.1246 8.06793 70.1246 9.56448 70.1246 10.6397V17.6327C70.1008 17.829 69.9241 17.982 69.7096 17.982H67.5395C67.339 17.9695 67.1769 17.822 67.1539 17.6327V11.599C67.1539 10.3833 67.2957 8.6059 65.7998 8.6059C65.2737 8.6059 64.7896 8.95663 64.5464 9.4939C64.2432 10.1723 64.2027 10.85 64.2027 11.599V17.5824C64.1992 17.8039 64.0119 17.982 63.7814 17.982Z" fill="white"/>
<path fill-rule="evenodd" clip-rule="evenodd" d="M37.1144 17.9527C36.9712 18.082 36.7651 18.0904 36.603 18.003C35.8848 17.4057 35.7555 17.1297 35.3621 16.561C34.1737 17.7711 33.3318 18.1344 31.7927 18.1344C29.9698 18.1344 28.5522 17.0095 28.5522 14.7598C28.5522 13.0027 29.5045 11.8072 30.8606 11.221C32.0358 10.7061 33.6763 10.6118 34.9325 10.4714V10.1898C34.9325 9.67419 34.973 9.06566 34.6691 8.6199C34.405 8.22166 33.8991 8.05747 33.4534 8.05747C32.6275 8.05747 31.8933 8.48017 31.713 9.357C31.6753 9.55263 31.5334 9.74616 31.3371 9.75594L29.2383 9.52817C29.0616 9.48835 28.8645 9.34652 28.9155 9.07544C29.3983 6.53018 31.6969 5.76095 33.7566 5.76095C34.8109 5.76095 36.188 6.04181 37.018 6.839C38.0716 7.82342 37.9703 9.13553 37.9703 10.5657V13.9382C37.9703 14.9534 38.3916 15.3977 38.7877 15.9448C38.9254 16.1418 38.9561 16.3758 38.7801 16.5198C38.3385 16.8908 37.5525 17.5734 37.12 17.9576L37.1144 17.9527ZM34.9325 12.6743C34.9325 13.5183 34.952 14.2205 34.5265 14.9715C34.1828 15.5801 33.6357 15.9552 33.0279 15.9552C32.1979 15.9552 31.7116 15.3222 31.7116 14.3846C31.7116 12.5408 33.3661 12.2055 34.9325 12.2055V12.6743Z" fill="white"/>
<path fill-rule="evenodd" clip-rule="evenodd" d="M8.7316 17.9527C8.58838 18.082 8.38157 18.0904 8.22017 18.003C7.50054 17.4057 7.37199 17.1297 6.97933 16.561C5.7902 17.7711 4.94899 18.1344 3.40982 18.1344C1.587 18.1344 0.169403 17.0095 0.169403 14.7598C0.169403 13.0027 1.12099 11.8072 2.47781 11.221C3.65227 10.7061 5.29345 10.6118 6.54826 10.4714V10.1898C6.54826 9.67419 6.58948 9.06566 6.28556 8.6199C6.02216 8.22166 5.51562 8.05747 5.07056 8.05747C4.24474 8.05747 3.51044 8.48017 3.33018 9.357C3.29315 9.55263 3.15063 9.74616 2.95431 9.75594L0.855502 9.52817C0.678738 9.48835 0.481006 9.34652 0.532708 9.07544C1.01479 6.53018 3.31342 5.76095 5.37449 5.76095C6.42739 5.76095 7.80516 6.04181 8.63518 6.839C9.68807 7.82342 9.58747 9.13553 9.58747 10.5657V13.9382C9.58747 14.9534 10.0081 15.3977 10.4035 15.9448C10.5419 16.1418 10.5733 16.3758 10.3972 16.5198C9.95496 16.8908 9.16828 17.5734 8.7365 17.9576L8.7316 17.9527ZM6.54826 12.6743C6.54826 13.5183 6.56922 14.2205 6.14373 14.9715C5.79998 15.5801 5.25223 15.9552 4.64509 15.9552C3.81507 15.9552 3.32809 15.3222 3.32809 14.3846C3.32809 12.5408 4.98254 12.2055 6.54826 12.2055V12.6743Z" fill="white"/>
</svg>
