<svg width="57" height="27" viewBox="0 0 57 27" fill="none" xmlns="http://www.w3.org/2000/svg">
<path d="M1.17863 26.3716H5.76896V7.50033H1.17863V26.3716ZM3.46459 5.02554C4.90253 5.02554 6.02706 3.95733 6.02706 2.62213C6.02706 1.26907 4.90253 0.200897 3.46459 0.200897C2.04511 0.200897 0.920578 1.26911 0.920578 2.62213C0.920578 3.95738 2.04511 5.02554 3.46459 5.02554ZM21.0522 0.254176C13.2912 0.254176 8.42416 5.36372 8.42416 13.5355C8.42416 21.7073 13.2908 26.7991 21.0522 26.7991C28.7948 26.7991 33.6618 21.7073 33.6618 13.5355C33.6618 5.36372 28.7952 0.254176 21.0522 0.254176ZM21.0522 4.1709C25.79 4.1709 28.8132 7.80277 28.8132 13.5354C28.8132 19.2502 25.7899 22.8822 21.0522 22.8822C16.296 22.8822 13.2912 19.2503 13.2912 13.5354C13.2912 7.80287 16.2961 4.1709 21.0522 4.1709ZM35.5982 19.1436C35.801 23.8794 39.8198 26.799 45.9402 26.799C52.3741 26.799 56.4299 23.7368 56.4299 18.8587C56.4299 15.0311 54.1439 12.8769 48.7425 11.6841L45.6823 11.0076C42.4193 10.2599 41.0736 9.2629 41.0736 7.55379C41.0736 5.41741 43.1014 3.99315 46.1063 3.99315C49.1481 3.99315 51.231 5.43523 51.4524 7.83864H55.9874C55.8768 3.31662 52.0054 0.254312 46.1433 0.254312C40.3545 0.254312 36.2435 3.33426 36.2435 7.89197C36.2435 11.5594 38.5663 13.8383 43.4698 14.9244L46.9171 15.7077C50.2723 16.4733 51.6365 17.5414 51.6365 19.393C51.6365 21.5294 49.4058 23.0604 46.1984 23.0604C42.9538 23.0604 40.5021 21.5116 40.2071 19.1437H35.5984L35.5982 19.1436Z" fill="white"/>
</svg>
